<?xml version="1.0" encoding="utf-8"?>
<!-- Generator: Adobe Illustrator 22.1.0, SVG Export Plug-In . SVG Version: 6.00 Build 0)  -->
<svg version="1.1" id="Capa_1" xmlns="http://www.w3.org/2000/svg" xmlns:xlink="http://www.w3.org/1999/xlink" x="0px" y="0px"
	 viewBox="0 0 10 10" style="enable-background:new 0 0 10 10;" xml:space="preserve">
<style type="text/css">
	.st0{fill:#018E49;}
</style>
<path class="st0" d="M10,6.6L9,8.4C8.9,8.5,8.7,8.5,8.6,8.5L7.4,8C7.1,8.2,6.8,8.3,6.5,8.5L6.3,9.8C6.3,9.9,6.1,10,6,10H4
	c-0.2,0-0.3-0.1-0.3-0.2L3.5,8.5C3.2,8.3,2.9,8.2,2.7,8L1.4,8.5c-0.2,0-0.3,0-0.3-0.1l-1-1.8C0,6.6,0,6.5,0.1,6.4l1.1-0.9
	C1.1,5.4,1.1,5.2,1.1,5s0.1-0.4,0.1-0.5L0.1,3.7C0,3.6,0,3.5,0,3.4l1-1.8c0.1-0.1,0.2-0.2,0.4-0.1L2.6,2c0.3-0.2,0.6-0.4,0.9-0.5
	l0.2-1.4C3.7,0.1,3.8,0,4,0h2c0.1,0,0.3,0.1,0.2,0.3l0.2,1.3C6.7,1.7,7,1.9,7.3,2.1l1.3-0.5c0.2-0.1,0.3,0,0.3,0.1l1,1.8
	C10,3.6,10,3.7,9.8,3.8L8.7,4.5C8.8,4.7,8.8,4.8,8.8,5S8.7,5.4,8.7,5.5l1.2,0.8C10,6.4,10,6.5,10,6.6z M5,3.3C4,3.3,3.2,4.1,3.2,5
	S4,6.8,5,6.8S6.8,6,6.8,5S5.9,3.3,5,3.3z"/>
</svg>
